<svg width="81" height="81" viewBox="0 0 81 81" fill="none" xmlns="http://www.w3.org/2000/svg">
<circle cx="40.5" cy="40.5" r="40.5" fill="#FFEDCD"/>
<path d="M39.3125 23.3125C43.0452 23.3125 46.0625 26.3856 46.0625 30.1875V31.9062H56.1706C57.8362 31.9062 59.3769 32.8378 60.1616 34.3537L65.8737 45.4242L65.8974 45.4792C66.1732 46.0716 66.3151 46.7194 66.3125 47.375V49.0938H64.7769C63.7644 49.0938 62.9375 49.9359 62.9375 50.9672V54.0953C62.9375 55.1266 63.7644 55.9688 64.7769 55.9688H66.1286C65.8453 56.9637 65.2528 57.8382 64.4401 58.4611C63.6274 59.084 62.6383 59.4217 61.6212 59.4234H61.2011C61.3212 58.3413 61.2156 57.2455 60.8912 56.2078C60.5669 55.1701 60.031 54.2139 59.3186 53.4017C58.6063 52.5896 57.7337 51.9398 56.7577 51.4949C55.7818 51.0499 54.7246 50.82 53.6554 50.82C52.5862 50.82 51.529 51.0499 50.5531 51.4949C49.5771 51.9398 48.7045 52.5896 47.9922 53.4017C47.2798 54.2139 46.744 55.1701 46.4196 56.2078C46.0952 57.2455 45.9896 58.3413 46.1097 59.4234H35.8886C36.0087 58.3413 35.9031 57.2455 35.5787 56.2078C35.2543 55.1701 34.7185 54.2139 34.0062 53.4017C33.2938 52.5896 32.4212 51.9398 31.4452 51.4949C30.4693 51.0499 29.4121 50.82 28.3429 50.82C27.2737 50.82 26.2165 51.0499 25.2406 51.4949C24.2646 51.9398 23.392 52.5896 22.6797 53.4017C21.9673 54.2139 21.4315 55.1701 21.1071 56.2078C20.7827 57.2455 20.6771 58.3413 20.7972 59.4234H20.4125C18.2727 59.4234 16.457 57.9625 15.8799 55.9688H16.4469C17.8137 55.9688 18.995 54.9031 19.0625 53.5109C19.13 52.0328 17.9656 50.8125 16.5312 50.8125H15.6875V30.1875C15.6875 26.3856 18.7047 23.3125 22.4375 23.3125H39.3125ZM42.6875 47.375V30.1875C42.6875 28.2831 41.1822 26.75 39.3125 26.75H22.4375C20.5677 26.75 19.0625 28.2831 19.0625 30.1875V47.375H42.6875ZM44.375 47.375H62.9375C62.94 47.3029 62.9338 47.2307 62.9189 47.1602C62.8965 47.0759 62.8671 46.9937 62.8312 46.9144L62.1832 45.6562H52.9812C51.9519 45.6562 51.125 44.8141 51.125 43.7656V38.9703C51.125 37.9219 51.9519 37.0797 52.9812 37.0797H57.7569L57.1747 35.9556C57.078 35.7701 56.9334 35.615 56.7564 35.5071C56.5794 35.3993 56.3769 35.3428 56.1706 35.3438H44.375V47.375Z" fill="#FE9D02"/>
<path d="M47.75 58.5469C47.75 60.1423 48.3723 61.6724 49.4799 62.8006C50.5875 63.9287 52.0898 64.5625 53.6562 64.5625C55.2227 64.5625 56.725 63.9287 57.8326 62.8006C58.9402 61.6724 59.5625 60.1423 59.5625 58.5469C59.5625 56.9514 58.9402 55.4213 57.8326 54.2932C56.725 53.165 55.2227 52.5312 53.6562 52.5312C52.0898 52.5312 50.5875 53.165 49.4799 54.2932C48.3723 55.4213 47.75 56.9514 47.75 58.5469ZM53.6562 61.125C52.9849 61.125 52.3411 60.8534 51.8664 60.3699C51.3917 59.8864 51.125 59.2306 51.125 58.5469C51.125 57.8631 51.3917 57.2074 51.8664 56.7239C52.3411 56.2404 52.9849 55.9688 53.6562 55.9688C54.3276 55.9688 54.9714 56.2404 55.4461 56.7239C55.9208 57.2074 56.1875 57.8631 56.1875 58.5469C56.1875 59.2306 55.9208 59.8864 55.4461 60.3699C54.9714 60.8534 54.3276 61.125 53.6562 61.125ZM22.4375 58.5469C22.4375 60.1423 23.0598 61.6724 24.1674 62.8006C25.275 63.9287 26.7773 64.5625 28.3438 64.5625C29.9102 64.5625 31.4125 63.9287 32.5201 62.8006C33.6277 61.6724 34.25 60.1423 34.25 58.5469C34.25 56.9514 33.6277 55.4213 32.5201 54.2932C31.4125 53.165 29.9102 52.5312 28.3438 52.5312C26.7773 52.5312 25.275 53.165 24.1674 54.2932C23.0598 55.4213 22.4375 56.9514 22.4375 58.5469ZM28.3438 61.125C27.6724 61.125 27.0286 60.8534 26.5539 60.3699C26.0792 59.8864 25.8125 59.2306 25.8125 58.5469C25.8125 57.8631 26.0792 57.2074 26.5539 56.7239C27.0286 56.2404 27.6724 55.9688 28.3438 55.9688C29.0151 55.9688 29.6589 56.2404 30.1336 56.7239C30.6083 57.2074 30.875 57.8631 30.875 58.5469C30.875 59.2306 30.6083 59.8864 30.1336 60.3699C29.6589 60.8534 29.0151 61.125 28.3438 61.125Z" fill="#FE9D02"/>
</svg>
