<svg width="46" height="46" viewBox="0 0 46 46" fill="none" xmlns="http://www.w3.org/2000/svg">
<g clip-path="url(#clip0_68_500)">
<path d="M41.7162 12.8964L12.098 9.61886L10.2925 2.7778C10.2297 2.54836 10.0936 2.34575 9.9049 2.20092C9.7162 2.05608 9.48529 1.97698 9.24742 1.97568H4.80123C4.64054 1.75936 4.43193 1.5832 4.19176 1.46099C3.95159 1.33879 3.68638 1.27386 3.41692 1.2713C2.9436 1.2713 2.48966 1.45933 2.15498 1.79401C1.82029 2.1287 1.63226 2.58264 1.63226 3.05596C1.63226 3.52928 1.82029 3.98321 2.15498 4.3179C2.48966 4.65259 2.9436 4.84061 3.41692 4.84061C3.99192 4.84061 4.47779 4.55311 4.80411 4.13336H8.41511L15.9332 32.5959C15.1131 33.4688 14.6558 34.621 14.6539 35.8187C14.6533 36.4404 14.7753 37.0561 15.0129 37.6306C15.2505 38.2051 15.599 38.7271 16.0385 39.1667C16.4781 39.6064 17 39.9551 17.5744 40.1928C18.1488 40.4306 18.7644 40.5528 19.3861 40.5524C20.6422 40.5528 21.847 40.0544 22.7358 39.1667C23.6245 38.2791 24.1244 37.0748 24.1255 35.8187C24.1231 35.4587 24.0782 35.1002 23.9919 34.7507H31.9455C31.8605 35.1004 31.8161 35.4588 31.8133 35.8187C31.8133 38.435 33.935 40.5524 36.5513 40.5524C39.1675 40.5524 41.285 38.435 41.285 35.8187C41.2854 34.5624 40.7867 33.3573 39.8988 32.4686C39.0108 31.5798 37.8062 31.0801 36.5499 31.0793C35.1842 31.0793 33.9624 31.6687 33.097 32.593H22.839C22.3988 32.1164 21.8648 31.736 21.2706 31.4755C20.6765 31.2151 20.0349 31.0802 19.3861 31.0793C18.8399 31.0793 18.3252 31.1914 17.8379 31.3611L17.5763 30.3749H38.5394C39.345 30.3585 40.1217 30.0717 40.7448 29.5607C41.3678 29.0498 41.8011 28.3442 41.975 27.5574L44.239 16.3478C44.2772 16.1517 44.2965 15.9524 44.2965 15.7527C44.2976 15.0411 44.0341 14.3545 43.5573 13.8264C43.0804 13.2983 42.4242 12.9677 41.7162 12.8964ZM36.5527 36.2414C36.4401 36.241 36.3322 36.1963 36.2523 36.1169C36.1724 36.0376 36.1269 35.9299 36.1258 35.8173C36.1301 35.5787 36.3199 35.3889 36.5542 35.3889C36.7885 35.3889 36.9782 35.5787 36.9811 35.8159C36.9796 35.9282 36.934 36.0355 36.8541 36.1146C36.7743 36.1936 36.6665 36.2381 36.5542 36.2385L36.5527 36.2414ZM39.1115 25.4673L40.4742 24.1017L40.0171 26.3729L39.1115 25.4673ZM18.3353 12.4766L19.8231 13.9687L17.9687 15.8231L16.11 13.9687L17.6726 12.4047L18.3353 12.4766ZM24.8012 13.1925L25.5745 13.9687L23.7202 15.8231L21.8615 13.9687L22.8505 12.9769L24.8012 13.1925ZM13.8431 16.2342L15.0937 14.9865L16.9481 16.8437L15.0937 18.6981L14.2815 17.8888L13.8445 16.2328L13.8431 16.2342ZM13.419 14.6242L12.9475 12.8417L14.076 13.9702L13.419 14.6242ZM31.3231 19.7187L29.4687 21.5731L27.61 19.7187L29.4673 17.8601L31.3231 19.7187ZM30.485 16.8437L32.3423 14.9865L34.1967 16.8437L32.3423 18.701L30.485 16.8437ZM26.5937 18.6981L24.735 16.8437L26.5923 14.9851L28.4467 16.8423L26.5937 18.6981ZM25.5731 19.7187L23.7187 21.5731L21.8615 19.7187L23.7187 17.8601L25.5731 19.7187ZM20.8437 18.6981L18.985 16.8437L20.8423 14.9851L22.6967 16.8423L20.8437 18.6981ZM19.8231 19.7187L17.9687 21.5731L16.11 19.7187L17.9673 17.8601L19.8231 19.7187ZM15.0937 20.7351L16.9481 22.5923L15.8211 23.7179L15.0449 20.7796L15.0923 20.7322L15.0937 20.7351ZM16.2466 25.3307L17.9673 23.6101L19.8217 25.4673L17.9673 27.3217L16.3429 25.6973L16.2466 25.3307ZM18.9865 22.5923L20.8409 20.7336L22.6995 22.5909L20.8452 24.4452L18.9879 22.5909L18.9865 22.5923ZM23.7187 23.6086L25.576 25.4659L23.7187 27.3202L21.8615 25.4659L23.7187 23.6086ZM24.7365 22.5909L26.5937 20.7322L28.4481 22.5894L26.5937 24.4438L24.7365 22.5909ZM29.4659 23.6072L31.3245 25.4644L29.4702 27.3188L27.6129 25.4616L29.4659 23.6072ZM30.4865 22.5894L32.3409 20.7307L34.1995 22.588L32.3452 24.4424L30.4865 22.5894ZM33.3615 19.7144L35.2159 17.8557L37.0745 19.713L35.2202 21.5674L33.3615 19.7144ZM36.2365 16.8394L38.0909 14.9807L39.9481 16.8437L38.0937 18.701L36.235 16.8423L36.2365 16.8394ZM35.2159 15.8217L33.5555 14.1599L36.5484 14.4906L35.2159 15.8217ZM31.326 13.9687L29.4716 15.826L27.6129 13.9687L28.0298 13.5519L31.2685 13.9112L31.326 13.9687ZM20.8466 12.9481L20.6281 12.7325L21.0205 12.7756L20.848 12.9481H20.8466ZM15.0966 12.951L14.1622 12.0166L15.8441 12.2035L15.0966 12.951ZM20.8466 26.4851L22.5788 28.2172H19.1144L20.8466 26.4851ZM26.5966 26.4851L28.3288 28.2187H24.8615L26.5966 26.4851ZM32.3466 26.4851L34.0817 28.2201H30.6115L32.3466 26.4851ZM33.3629 25.4673L35.2202 23.6086L37.0745 25.4659L35.2202 27.3202L33.3629 25.4673ZM36.2379 22.5923L38.0952 20.7351L39.9495 22.5894L38.0952 24.4481L36.2365 22.5937L36.2379 22.5923ZM40.9702 21.5717L39.1129 19.7173L40.9673 17.8601L41.607 18.4983L40.9889 21.5516L40.9687 21.5731L40.9702 21.5717ZM41.6889 15.1029L40.9702 15.8217L40.0214 14.8772L41.4834 15.0382C41.561 15.0497 41.6271 15.0756 41.6904 15.1015L41.6889 15.1029ZM19.389 36.2399C19.2802 36.2336 19.178 36.186 19.1032 36.1067C19.0285 36.0275 18.9868 35.9227 18.9868 35.8137C18.9868 35.7048 19.0285 35.5999 19.1032 35.5207C19.178 35.4415 19.2802 35.3938 19.389 35.3875C19.4974 35.3938 19.5992 35.4413 19.6738 35.5203C19.7483 35.5992 19.7898 35.7037 19.7898 35.8123C19.7898 35.9208 19.7483 36.0253 19.6738 36.1043C19.5992 36.1832 19.4974 36.2307 19.389 36.237V36.2399ZM38.5408 28.2187H36.3601L38.0952 26.4836L39.432 27.8205C39.1632 28.0649 38.824 28.2374 38.5408 28.2187Z" fill="#FE9D02"/>
</g>
<defs>
<clipPath id="clip0_68_500">
<rect width="46" height="46" fill="white"/>
</clipPath>
</defs>
</svg>
