<svg width="40" height="40" viewBox="0 0 40 40" fill="none" xmlns="http://www.w3.org/2000/svg">
<path d="M19.9762 0C22.7414 0 25.3397 0.524434 27.7712 1.5733C30.2026 2.62217 32.3242 4.05244 34.1359 5.86412C35.9476 7.6758 37.3778 9.78943 38.4267 12.205C39.4756 14.6206 40 17.211 40 19.9762C40 22.7414 39.4756 25.3397 38.4267 27.7712C37.3778 30.2026 35.9476 32.3242 34.1359 34.1359C32.3242 35.9476 30.2026 37.3778 27.7712 38.4267C25.3397 39.4756 22.7414 40 19.9762 40C17.211 40 14.6206 39.4756 12.205 38.4267C9.78943 37.3778 7.6758 35.9476 5.86412 34.1359C4.05244 32.3242 2.62217 30.2026 1.5733 27.7712C0.524434 25.3397 0 22.7414 0 19.9762C0 17.211 0.524434 14.6206 1.5733 12.205C2.62217 9.78943 4.05244 7.6758 5.86412 5.86412C7.6758 4.05244 9.78943 2.62217 12.205 1.5733C14.6206 0.524434 17.211 0 19.9762 0ZM27.5089 8.72467H23.2658C22.4394 8.72467 21.6766 8.8677 20.9774 9.15375C20.2781 9.43981 19.6663 9.82122 19.1418 10.298C18.6174 10.7747 18.2122 11.3151 17.9261 11.919C17.64 12.5228 17.497 13.1267 17.497 13.7306V16.2574H13.7306V21.2157H17.497V31.2277H22.503V21.2157H26.2217V16.2574H22.503V14.9702C22.503 14.5888 22.654 14.2868 22.9559 14.0644C23.2578 13.8419 23.5201 13.7306 23.7425 13.7306H27.5089V8.72467Z" fill="#FE9D02"/>
</svg>
