<svg width="40" height="40" viewBox="0 0 40 40" fill="none" xmlns="http://www.w3.org/2000/svg">
<path d="M19.7849 24.4205C19.1796 24.4205 18.6141 24.309 18.0884 24.086C17.5627 23.863 17.1008 23.5524 16.7025 23.1541C16.3043 22.7559 15.9936 22.2859 15.7706 21.7443C15.5476 21.2027 15.4361 20.6292 15.4361 20.0239C15.4361 19.4186 15.5476 18.853 15.7706 18.3274C15.9936 17.8017 16.3043 17.3397 16.7025 16.9415C17.1008 16.5432 17.5627 16.2326 18.0884 16.0096C18.6141 15.7865 19.1796 15.675 19.7849 15.675C20.9956 15.675 22.0231 16.0972 22.8674 16.9415C23.7117 17.7857 24.1338 18.8132 24.1338 20.0239C24.1338 20.6292 24.0223 21.2027 23.7993 21.7443C23.5763 22.2859 23.2656 22.7559 22.8674 23.1541C22.4691 23.5524 22.0072 23.863 21.4815 24.086C20.9558 24.309 20.3903 24.4205 19.7849 24.4205ZM26.7622 20.0239C26.7622 19.7372 26.7463 19.4425 26.7145 19.1398C26.6826 18.8371 26.6348 18.5583 26.5711 18.3035H28.5305V27.9092C28.5305 28.1641 28.4508 28.3712 28.2915 28.5305C28.1322 28.6898 27.9251 28.7694 27.6703 28.7694H11.8996C11.6448 28.7694 11.4377 28.6898 11.2784 28.5305C11.1191 28.3712 11.0394 28.1641 11.0394 27.9092V18.3035H12.9988C12.9351 18.5583 12.8873 18.8371 12.8554 19.1398C12.8236 19.4425 12.8076 19.7372 12.8076 20.0239C12.8076 20.9797 12.9908 21.8877 13.3572 22.7479C13.7236 23.6081 14.2174 24.3568 14.8387 24.994C15.46 25.6312 16.2007 26.133 17.0609 26.4994C17.9211 26.8658 18.8292 27.049 19.7849 27.049C20.7407 27.049 21.6487 26.8658 22.509 26.4994C23.3692 26.133 24.1099 25.6312 24.7312 24.994C25.3524 24.3568 25.8463 23.6081 26.2127 22.7479C26.5791 21.8877 26.7622 20.9797 26.7622 20.0239ZM19.9761 0C22.7479 0 25.3445 0.525687 27.7658 1.57706C30.1872 2.62843 32.3059 4.05416 34.1219 5.85424C35.9379 7.65432 37.3716 9.76503 38.4229 12.1864C39.4743 14.6077 40 17.2043 40 19.9761C40 22.7479 39.4743 25.3445 38.4229 27.7658C37.3716 30.1872 35.9379 32.3059 34.1219 34.1219C32.3059 35.9379 30.1872 37.3716 27.7658 38.4229C25.3445 39.4743 22.7479 40 19.9761 40C17.2043 40 14.6077 39.4743 12.1864 38.4229C9.76503 37.3716 7.65432 35.9379 5.85424 34.1219C4.05416 32.3059 2.62843 30.1872 1.57706 27.7658C0.525687 25.3445 0 22.7479 0 19.9761C0 17.2043 0.525687 14.6077 1.57706 12.1864C2.62843 9.76503 4.05416 7.65432 5.85424 5.85424C7.65432 4.05416 9.76503 2.62843 12.1864 1.57706C14.6077 0.525687 17.2043 0 19.9761 0ZM31.1589 11.2784C31.1589 10.5456 30.904 9.92433 30.3943 9.41458C29.8845 8.90482 29.2632 8.64994 28.5305 8.64994H11.0394C10.3067 8.64994 9.68538 8.90482 9.17563 9.41458C8.66587 9.92433 8.41099 10.5456 8.41099 11.2784V28.7694C8.41099 29.5022 8.66587 30.1235 9.17563 30.6332C9.68538 31.143 10.3067 31.3979 11.0394 31.3979H28.5305C29.2632 31.3979 29.8845 31.143 30.3943 30.6332C30.904 30.1235 31.1589 29.5022 31.1589 28.7694V11.2784ZM27.6703 11.2784C27.9251 11.2784 28.1322 11.366 28.2915 11.5412C28.4508 11.7164 28.5305 11.9315 28.5305 12.1864V14.8148C28.5305 15.0697 28.4508 15.2768 28.2915 15.4361C28.1322 15.5954 27.9251 15.675 27.6703 15.675H25.0418C24.7869 15.675 24.5719 15.5954 24.3967 15.4361C24.2214 15.2768 24.1338 15.0697 24.1338 14.8148V12.1864C24.1338 11.9315 24.2214 11.7164 24.3967 11.5412C24.5719 11.366 24.7869 11.2784 25.0418 11.2784H27.6703Z" fill="#FE9D02"/>
</svg>
