<svg width="81" height="81" viewBox="0 0 81 81" fill="none" xmlns="http://www.w3.org/2000/svg">
<circle cx="40.5" cy="40.5" r="40.5" fill="#FFEDCD"/>
<path d="M24.7994 48.3246V54.8819C26.8025 57.3383 29.3277 59.3175 32.1914 60.6757C35.0552 62.0339 38.1856 62.737 41.3551 62.7339C48.7505 62.7339 55.2702 58.9781 59.1081 53.2708V44.0797C57.7946 52.7047 50.3462 59.3133 41.3551 59.3133C33.9085 59.3133 27.5205 54.781 24.7994 48.3246ZM55.944 30.8812V27.9361C55.939 27.2865 56.0454 26.6409 56.2587 26.0274C52.2721 22.1408 46.9227 19.9689 41.3551 19.9763C36.3728 19.9689 31.5456 21.7089 27.7137 24.8935L27.7223 24.9978L27.724 25.044V29.6618C29.4083 27.6944 31.4991 26.1156 33.8523 25.034C36.2055 23.9525 38.7653 23.394 41.3551 23.397C47.3651 23.397 52.6842 26.3489 55.944 30.8812Z" fill="#FE9D02"/>
<path d="M55.0376 41.3552C55.0376 44.984 53.596 48.4641 51.0301 51.0301C48.4641 53.5961 44.9839 55.0376 41.3551 55.0376C37.7263 55.0376 34.2461 53.5961 31.6802 51.0301C29.1142 48.4641 27.6727 44.984 27.6727 41.3552C27.6727 37.7264 29.1142 34.2462 31.6802 31.6802C34.2461 29.1143 37.7263 27.6727 41.3551 27.6727C44.9839 27.6727 48.4641 29.1143 51.0301 31.6802C53.596 34.2462 55.0376 37.7264 55.0376 41.3552ZM41.3551 53.3273C42.9273 53.3273 44.4841 53.0176 45.9367 52.416C47.3892 51.8143 48.709 50.9324 49.8207 49.8207C50.9324 48.709 51.8143 47.3892 52.4159 45.9367C53.0176 44.4842 53.3273 42.9274 53.3273 41.3552C53.3273 39.783 53.0176 38.2261 52.4159 36.7736C51.8143 35.3211 50.9324 34.0013 49.8207 32.8896C48.709 31.7779 47.3892 30.896 45.9367 30.2944C44.4841 29.6927 42.9273 29.383 41.3551 29.383C38.1799 29.383 35.1348 30.6444 32.8896 32.8896C30.6444 35.1348 29.383 38.18 29.383 41.3552C29.383 44.5304 30.6444 47.5755 32.8896 49.8207C35.1348 52.0659 38.1799 53.3273 41.3551 53.3273ZM64.4271 26.715C64.4271 25.1757 63.1786 23.9272 61.6393 23.9272C59.4159 23.9272 57.6372 25.723 57.6543 27.9293V37.4215C57.6543 39.5645 58.896 41.4834 60.8184 42.3523V57.09C60.8184 57.9793 61.5367 58.6976 62.4261 58.6976H62.8195C63.7088 58.6976 64.4271 57.9793 64.4271 57.09V26.715ZM24.7994 23.9272C24.4909 23.9272 24.1951 24.0497 23.977 24.2678C23.7589 24.4859 23.6364 24.7817 23.6364 25.0902V29.6909C23.6364 30.0329 23.3627 30.2895 23.0378 30.2895C22.6957 30.2895 22.4392 30.0158 22.4392 29.6909V25.1415C22.4392 24.5087 21.9432 23.9443 21.3104 23.9272C20.6434 23.9101 20.0961 24.4403 20.0961 25.0902V29.6909C20.0961 30.0329 19.8224 30.2895 19.4974 30.2895C19.1554 30.2895 18.8988 30.0158 18.8988 29.6909V25.1415C18.8988 24.5087 18.4029 23.9443 17.77 23.9272C17.103 23.9101 16.5557 24.4403 16.5557 25.0902V32.9234C16.5557 34.4661 17.3031 35.8428 18.4525 36.7014C19.4803 37.2812 19.4803 39.9356 19.4803 39.9356V57.0729C19.4803 57.9622 20.1987 58.6805 21.088 58.6805H21.4814C22.3708 58.6805 23.0891 57.9622 23.0891 57.0729V39.9356C23.0891 39.9356 23.0891 37.3855 24.117 36.7014C24.7053 36.2627 25.1832 35.6928 25.5125 35.0369C25.8417 34.381 26.0134 33.6573 26.0137 32.9234V25.0902C25.9964 24.7785 25.8614 24.4851 25.6359 24.2692C25.4105 24.0533 25.1115 23.931 24.7994 23.9272Z" fill="#FE9D02"/>
</svg>
