<svg width="81" height="81" viewBox="0 0 81 81" fill="none" xmlns="http://www.w3.org/2000/svg">
<circle cx="40.5" cy="40.5" r="40.5" fill="#FFEDCD"/>
<path d="M39.9606 16.353C37.4698 16.353 35.2022 17.49 34.0273 19.2671L33.5103 20.0497L32.6173 19.6194C31.7831 19.2133 30.8315 18.9982 29.8798 18.9982C26.5547 18.9982 23.8524 21.4841 23.8524 24.6102C23.8524 27.4051 26.0377 29.736 28.9633 30.1578L29.8563 30.2844V35.9164C36.6591 34.7457 43.4854 34.693 50.3 35.9164V28.5653L50.864 28.291C52.7086 27.4156 53.9305 25.5383 53.9305 23.4237C53.9305 20.3862 51.4984 18.0321 48.5963 18.0321C47.8326 18.0321 47.0689 18.2019 46.3757 18.5299L45.6473 18.8674L45.1068 18.3306C43.8379 17.0892 41.958 16.353 39.9606 16.353ZM40.0781 36.8973C37.0703 36.8973 34.0742 37.1504 31.0664 37.6356C30.9607 38.2684 30.9137 38.9223 30.9137 39.5973C30.9137 42.6559 31.9946 45.4192 33.6865 47.3703C35.3784 49.3215 37.6225 50.4606 40.0781 50.4606C42.5337 50.4606 44.7778 49.3215 46.4697 47.3703C48.1616 45.4192 49.2426 42.6559 49.2426 39.5973C49.2426 38.9223 49.1838 38.2578 49.0898 37.625C46.082 37.1293 43.0859 36.8867 40.0781 36.8973ZM34.5207 50.7031L24.0404 53.8356L20.7529 65.6481H47.7856L46.082 54.9219L48.1734 54.6477L49.924 65.6481H59.4057L56.1159 53.8356L45.6355 50.7031C44.0141 51.7473 42.1107 52.359 40.0781 52.359C38.0455 52.359 36.1421 51.7473 34.5207 50.7031ZM42.663 56.2613C42.8173 56.2613 42.9701 56.2886 43.1126 56.3416C43.2552 56.3946 43.3847 56.4723 43.4938 56.5702C43.6029 56.6682 43.6894 56.7844 43.7485 56.9124C43.8075 57.0404 43.8379 57.1775 43.8379 57.316C43.8379 57.4545 43.8075 57.5917 43.7485 57.7197C43.6894 57.8476 43.6029 57.9639 43.4938 58.0618C43.3847 58.1598 43.2552 58.2375 43.1126 58.2905C42.9701 58.3435 42.8173 58.3707 42.663 58.3707C42.5087 58.3707 42.3559 58.3435 42.2133 58.2905C42.0708 58.2375 41.9412 58.1598 41.8321 58.0618C41.723 57.9639 41.6365 57.8476 41.5774 57.7197C41.5184 57.5917 41.488 57.4545 41.488 57.316C41.488 57.1775 41.5184 57.0404 41.5774 56.9124C41.6365 56.7844 41.723 56.6682 41.8321 56.5702C41.9412 56.4723 42.0708 56.3946 42.2133 56.3416C42.3559 56.2886 42.5087 56.2613 42.663 56.2613ZM43.4854 61.1129C43.797 61.1129 44.0959 61.224 44.3162 61.4218C44.5366 61.6196 44.6603 61.8879 44.6603 62.1676C44.6603 62.4473 44.5366 62.7156 44.3162 62.9134C44.0959 63.1112 43.797 63.2223 43.4854 63.2223C43.1738 63.2223 42.875 63.1112 42.6546 62.9134C42.4343 62.7156 42.3105 62.4473 42.3105 62.1676C42.3105 61.8879 42.4343 61.6196 42.6546 61.4218C42.875 61.224 43.1738 61.1129 43.4854 61.1129Z" fill="#FE9D02"/>
</svg>
